# xmcd
#
# Track frame offsets:
#	150
#	18331
#	34553
#	52438
#	67982
#	83324
#	100630
#	120027
#	133707
#	149420
#	167528
#	181404
#	191647
#	203329
#
# Disc length: 3074 seconds
#
# Revision: 2
# Processed by: cddbd v1.4PL0 Copyright (c) Steve Scherf et al.
# Submitted via: audiograbber 1.80
#
DISCID=ac0c000e
DTITLE=CDX - Volume 313 March 2003
DYEAR=1900
DGENRE=
TTITLE0=Darryl Worley - Have You Forgotten?
TTITLE1=Lonestar - My Front Porch Looking In
TTITLE2=Brad Martin - One Of Those Days
TTITLE3=Allison Paige - Send A Message
TTITLE4=Pam Tillis - So Wrong
TTITLE5=LeAnn Rimes - Suddenly
TTITLE6=Trace Adkins - Then They Do
TTITLE7=Tracy Byrd f/ Andy Griggs, Blake Shelton And Montgomery Gentry - The Tr
TTITLE7=uth About Men
TTITLE8=Dusty Drake - Too Wet To Plow
TTITLE9=Garth Brooks - Why Ain't I Running
TTITLE10=Tim Hughes - Dancing In Your Eyes
TTITLE11=Johnny St. Clair - Haggard And Jones
TTITLE12=Brian Bush - Heart At The Checkered Line
TTITLE13=Hal Bynum - An American Prayer
EXTD=
EXTT0=
EXTT1=
EXTT2=
EXTT3=
EXTT4=
EXTT5=
EXTT6=
EXTT7=
EXTT8=
EXTT9=
EXTT10=
EXTT11=
EXTT12=
EXTT13=
PLAYORDER=
